<svg width="72" height="72" viewBox="0 0 72 72" fill="none" xmlns="http://www.w3.org/2000/svg">
<g id="logo-badge" clip-path="url(#clip0_1060_445)">
<path id="Vector" d="M0 36.0002C0 16.118 16.118 0 36.0002 0C55.8825 0 72.0004 16.118 72.0004 36.0002C72.0004 55.8825 55.8825 72.0004 36.0002 72.0004C16.118 72.0004 0 55.8825 0 36.0002Z" fill="#F0E6D5"/>
<g id="Group">
<path id="Vector_2" d="M53.5076 27.7043C51.0404 17.3713 41.0925 15.1355 33.7682 14.9818C26.4429 14.8268 19.8887 20.1481 18.5776 24.697C17.2665 29.2463 17.6882 36.7668 18.7326 40.1953C19.8119 43.7431 22.4341 48.6016 27.2917 52.5336C29.1524 54.04 33.9996 55.1549 33.9996 55.1549C36.7759 57.3134 41.2407 57.1435 43.2524 56.8511C47.4939 56.2337 49.7302 52.6873 50.5785 49.835C51.4259 46.9818 51.4259 43.2022 51.4259 43.2022C51.4259 43.2022 55.9744 38.0363 53.5076 27.7043ZM48.9587 35.5691C49.1115 36.0324 49.1892 36.1092 47.5699 35.8778C45.951 35.6464 43.947 36.8039 43.4069 37.4972C42.8669 38.1918 42.4041 38.8847 41.8644 38.7301C41.3257 38.5764 41.4021 37.8836 41.4021 37.8836C41.4021 37.8836 42.2509 36.803 43.3306 36.1856C44.4089 35.5696 45.4886 35.3386 46.3379 35.415C47.1853 35.4928 47.6467 34.799 45.7982 34.799C43.9497 34.799 43.4838 35.3386 42.7127 35.801C41.9422 36.2647 41.4025 36.4179 41.4025 36.4179C41.4025 36.4179 41.0166 35.5705 42.1731 34.8758C43.331 34.1816 44.4546 33.8418 46.647 34.1053C48.5746 34.3367 48.8051 35.1072 48.9596 35.57L48.9587 35.5691ZM45.18 38.5764C45.6427 39.4238 46.2592 40.0412 46.2592 40.0412C46.2592 40.0412 44.7935 39.9648 43.637 39.6557C42.9672 39.4781 42.7118 39.4238 42.7118 39.4238C42.7118 39.4238 43.3301 38.8078 43.8693 38.2686C44.4085 37.7281 44.9481 37.5754 44.9481 37.5754C44.9481 37.5754 44.8848 38.0354 45.18 38.5769V38.5764ZM50.2694 46.6727C49.8057 49.3704 48.4186 54.6135 44.7935 55.6168C41.1707 56.6202 36.0266 56.8082 32.9971 53.226C30.4531 50.2192 28.4482 45.9021 28.2159 44.5133C27.9845 43.1253 27.9082 42.4325 27.9082 42.4325C27.9082 42.4325 30.3749 39.8871 31.2237 38.9619C32.0729 38.0359 32.7657 37.4958 33.7682 37.574C34.7706 37.6508 34.6938 36.1847 33.4599 36.3397C32.2261 36.4938 30.7613 38.2677 29.7589 39.4247C28.7569 40.5808 27.5231 41.6601 27.5231 41.6601L27.3685 40.8891C27.3685 40.8891 30.882 35.9171 33.1517 35.5682C35.157 35.2605 36.3904 35.7228 37.2383 37.4963C38.0866 39.2711 37.4701 39.8871 38.2407 39.7316C38.6488 39.6507 38.4757 37.0335 37.1632 35.1054C35.8512 33.1779 32.5357 33.0228 30.3763 35.0291C28.2168 37.0335 26.9839 39.6543 26.9839 39.6543C26.9839 39.6543 24.9786 31.0198 29.3738 27.3951C33.7686 23.7714 39.0899 23.2309 43.331 26.5464C47.5703 29.8628 47.2635 32.5614 47.4162 32.5614C47.569 32.5614 44.1762 32.0991 42.7896 32.9465C41.4025 33.7948 39.7845 35.5682 40.7861 38.8838C41.7876 42.1997 44.0239 46.9027 42.7914 47.211C41.558 47.5201 40.7083 46.2863 40.1701 46.8264C39.6291 47.3664 40.0652 48.2577 40.0652 48.2577C39.0623 48.6432 38.915 48.1379 38.684 47.5969C38.4545 47.0582 38.087 46.2863 37.8561 46.5954C37.6251 46.9045 37.5587 47.4885 38.0143 48.1081C38.5448 48.8299 39.3231 49.1173 40.0901 49.0034C41.0107 48.8665 41.3415 48.2835 41.3415 48.2835C41.3415 48.2835 43.4847 48.5221 44.1793 47.5978C44.874 46.6718 43.0219 43.1249 42.6368 41.8915C42.2522 40.6577 42.174 40.118 42.174 40.118C42.174 40.118 45.5664 41.0423 47.1862 40.7345C48.806 40.4272 49.6529 39.2706 49.6529 39.2706C49.6529 39.2706 50.7331 43.9718 50.2716 46.6718L50.2694 46.6727Z" fill="#261005"/>
<path id="Vector_3" d="M32.5349 38.8083C31.6093 39.5793 28.9111 42.6621 28.9111 42.6621C29.0648 43.0494 29.9899 42.8948 31.532 43.2803C33.0741 43.6654 35.1567 43.7418 36.3896 42.5093C37.6243 41.275 37.4706 39.888 36.6987 39.1933C35.9268 38.4987 33.46 38.0377 32.5349 38.8083ZM31.687 42.5861C30.5296 42.277 30.2213 42.277 30.2213 42.277C30.2213 42.277 30.6841 41.5842 31.146 41.1214C31.6088 40.6586 32.4571 40.1189 32.4571 40.1189C32.4571 40.1189 32.5344 40.5817 32.8422 41.506C33.1513 42.4329 33.691 42.8175 33.691 42.8175C33.691 42.8175 32.844 42.8948 31.687 42.5857V42.5861Z" fill="#261005"/>
<path id="Vector_4" d="M45.5651 48.8312C45.0269 49.1394 45.2578 50.0655 45.2578 50.0655C45.2578 50.0655 44.1017 49.9118 43.4075 50.2192L42.7129 50.5283C42.7129 50.5283 41.865 50.2973 41.0167 50.4501C40.1697 50.6047 39.3969 50.9902 39.3969 50.9902C38.9341 50.8374 38.6263 50.2973 38.4718 50.682C38.3186 51.0675 37.8558 53.0728 38.935 52.8418C40.0143 52.61 39.3969 51.8389 39.3969 51.8389C39.3969 51.8389 40.5544 51.2989 41.1713 51.2989C41.7882 51.2989 41.7873 51.9153 42.8674 51.7626C43.9472 51.608 43.2548 51.0679 44.1786 50.9897C45.1037 50.9134 45.5656 51.6076 46.1052 51.067C46.6467 50.5278 46.1052 48.5225 45.5656 48.8308L45.5651 48.8312Z" fill="#261005"/>
<path id="Vector_5" d="M42.8671 53.226C41.7874 53.4587 41.2491 53.1496 41.0941 53.611C40.9215 54.129 41.5574 54.1511 42.9449 54.0747C44.3324 53.9966 45.4885 53.5351 44.9488 52.995C44.4092 52.4549 43.9473 52.9959 42.8671 53.226Z" fill="#261005"/>
</g>
<path id="Vector_6" d="M20.9369 60.0337C21.2645 59.3657 22.2855 57.6428 24.6849 58.8197C26.8416 59.8777 26.4656 61.4894 26.1235 62.2884C26.0643 62.4353 25.9183 62.5018 25.7614 62.4625L24.5136 62.1646C24.2808 62.1009 24.1887 61.8794 24.2628 61.6521C24.4304 61.1816 24.3776 60.8291 23.8307 60.5606C23.0818 60.1932 22.7975 60.6442 22.4152 61.4239L21.7002 62.8819C21.3179 63.6615 21.1353 64.1622 21.8841 64.5297C22.441 64.8031 22.7221 64.6142 23.0113 64.1781C23.146 63.9806 23.3724 63.9286 23.55 64.0782L24.5701 64.8926C24.6971 64.9925 24.7337 65.1484 24.6487 65.2953C24.2307 66.0451 23.1867 67.3286 21.03 66.271C18.6305 65.0942 19.3677 63.2326 19.6958 62.5646L20.9373 60.0337H20.9369Z" fill="#261005"/>
<path id="Vector_7" d="M39.2126 61.5735C39.4385 61.5717 39.552 61.6838 39.5538 61.9098L39.5628 63.1743C39.5642 63.389 39.4525 63.5142 39.2266 63.5155L36.3806 63.5363C36.1664 63.5377 36.0426 63.6516 36.0444 63.8776L36.0471 64.2391C36.0484 64.4533 36.1736 64.5767 36.3883 64.5754L38.2517 64.5618C38.4777 64.56 38.5916 64.6721 38.5929 64.8981L38.6024 66.1631C38.6038 66.3778 38.4921 66.5025 38.2662 66.5043L36.4028 66.5179C36.1885 66.5192 36.0647 66.6331 36.0665 66.8591L36.0832 69.1627C36.0846 69.3769 35.973 69.5021 35.747 69.5039L34.4146 69.5138C34.2 69.5152 34.0748 69.3923 34.0734 69.1776L34.0205 61.9504C34.0187 61.7245 34.1421 61.6106 34.3568 61.6092L39.2121 61.5735H39.2126Z" fill="#261005"/>
<path id="Vector_8" d="M45.1823 60.0712C45.4011 60.0147 45.5385 60.0956 45.595 60.3143L45.9118 61.5387C45.9656 61.7466 45.8874 61.8953 45.6686 61.9518L42.9135 62.6649C42.7061 62.7187 42.6139 62.8593 42.6704 63.0776L42.7608 63.4274C42.8146 63.6348 42.966 63.7243 43.1734 63.6705L44.9772 63.2037C45.1959 63.1472 45.3337 63.2281 45.3902 63.4468L45.7071 64.6712C45.7608 64.8791 45.6826 65.0273 45.4639 65.0838L43.6602 65.5507C43.4527 65.6044 43.3605 65.745 43.417 65.9637L43.9946 68.1941C44.0484 68.4016 43.9702 68.5503 43.7515 68.6068L42.4616 68.9407C42.2537 68.9945 42.1023 68.9055 42.0485 68.6976L40.2371 61.7009C40.1806 61.4822 40.2723 61.3416 40.4802 61.2878L45.181 60.0707L45.1823 60.0712Z" fill="#261005"/>
<path id="Vector_9" d="M50.5344 57.3491C50.7374 57.2456 50.8906 57.2953 50.9941 57.4987L51.573 58.6349C51.6715 58.8279 51.6268 58.991 51.4239 59.0945L48.968 60.346C48.7754 60.444 48.7153 60.6027 48.8188 60.8056L48.9842 61.1306C49.0823 61.3231 49.2509 61.3782 49.4439 61.2797L51.0167 60.4779C51.2196 60.3744 51.3728 60.4242 51.4763 60.6271L52.0557 61.7637C52.1542 61.9567 52.1095 62.1199 51.9061 62.2234L50.3333 63.0251C50.1408 63.1232 50.0807 63.2819 50.1842 63.4848L50.3496 63.8093C50.4481 64.0023 50.6162 64.057 50.8092 63.9589L53.2651 62.7074C53.4681 62.6039 53.6213 62.6536 53.7248 62.8566L54.3042 63.9932C54.4077 64.1962 54.3579 64.3494 54.155 64.4529L49.8927 66.6249C49.7001 66.723 49.5316 66.6683 49.433 66.4758L46.1234 59.9812C46.0199 59.7783 46.08 59.6197 46.2725 59.5216L50.5349 57.3495L50.5344 57.3491Z" fill="#261005"/>
<path id="Vector_10" d="M55.1311 53.348C55.3042 53.1997 55.4647 53.2119 55.6129 53.385L56.4431 54.3531C56.5841 54.5176 56.5792 54.6866 56.4065 54.8349L54.314 56.6291C54.1499 56.7697 54.1287 56.9378 54.2769 57.1109L54.5142 57.3875C54.6548 57.5516 54.8315 57.5651 54.996 57.4246L56.336 56.2757C56.5091 56.1275 56.6696 56.1397 56.8178 56.3123L57.648 57.2808C57.789 57.4453 57.7841 57.6144 57.611 57.7626L56.2709 58.9115C56.1069 59.052 56.0856 59.2202 56.2343 59.3933L56.4716 59.6699C56.6126 59.8344 56.7893 59.8479 56.9534 59.7069L59.0459 57.9127C59.219 57.7644 59.3795 57.7766 59.5277 57.9497L60.3579 58.9183C60.5062 59.0909 60.494 59.2518 60.3209 59.4L56.6894 62.5135C56.5254 62.6541 56.3487 62.6405 56.2077 62.4765L51.4631 56.9428C51.3148 56.7697 51.3356 56.6016 51.4997 56.461L55.1311 53.3475V53.348Z" fill="#261005"/>
<path id="Vector_11" d="M3.11394 31.7383C3.38963 29.5979 4.36042 28.8897 6.22743 29.1301C6.6143 29.1798 7.35144 29.3904 7.80339 29.9233C8.07998 29.4844 8.69283 29.2164 9.39878 29.3073C10.8102 29.4889 11.4127 30.203 11.137 32.3435L10.775 35.1555C10.747 35.372 10.6059 35.4809 10.3895 35.4529L3.11484 34.516C2.88706 34.4866 2.78808 34.3583 2.8057 34.1291L3.11348 31.7383H3.11394ZM9.50182 32.2829C9.57233 31.7365 9.55063 31.4558 9.01552 31.3871C8.48041 31.3184 8.36833 31.5584 8.29827 32.1048L8.20291 32.8447C8.17489 33.0612 8.27251 33.2008 8.5003 33.2302L9.02411 33.2975C9.25189 33.3269 9.3816 33.2162 9.40962 32.9997L9.50182 32.2825V32.2829ZM6.64413 32.0077C6.71464 31.4613 6.68119 31.1792 5.97569 31.0884C5.26975 30.9976 5.16625 31.262 5.0962 31.8084L5.0171 32.423C4.98908 32.6395 5.08716 32.7792 5.31449 32.8085L6.17998 32.9202C6.40776 32.9495 6.53747 32.8388 6.56549 32.6223L6.64458 32.0077H6.64413Z" fill="#261005"/>
<path id="Vector_12" d="M27.4716 3.95499C29.5547 3.39186 30.5802 4.01872 31.0714 5.83556C31.1731 6.21204 31.2603 6.97358 30.9408 7.59501C31.452 7.68269 31.9342 8.14685 32.12 8.83427C32.4915 10.2082 32.0616 11.038 29.9782 11.6007L27.2411 12.3405C27.0305 12.3975 26.876 12.3084 26.819 12.0978L24.905 5.01708C24.8449 4.79562 24.9258 4.65461 25.1445 4.58366L27.4716 3.95454V3.95499ZM29.4087 10.0663C29.9406 9.92257 30.1915 9.79512 30.0509 9.27447C29.9104 8.75382 29.6455 8.74207 29.1136 8.88579L28.3932 9.08058C28.1825 9.13753 28.0903 9.28125 28.1505 9.5027L28.2883 10.0125C28.3484 10.234 28.5003 10.3117 28.7104 10.2552L29.4087 10.0667V10.0663ZM28.5712 7.32023C29.1032 7.17651 29.3508 7.03821 29.1655 6.35124C28.9798 5.66427 28.696 5.6697 28.164 5.81342L27.5656 5.97522C27.355 6.03216 27.2633 6.17588 27.3229 6.39734L27.5507 7.23978C27.6104 7.46124 27.7627 7.53897 27.9728 7.48248L28.5712 7.32068V7.32023Z" fill="#261005"/>
<path id="Vector_13" d="M52.2736 7.12999C52.4404 7.23077 52.5064 7.36455 52.4802 7.56296L51.8398 11.6323C51.8258 11.7444 51.9157 11.772 51.9754 11.6739L53.8894 8.50844C54.0078 8.3123 54.175 8.27976 54.3612 8.39229L55.4585 9.05576C55.6547 9.17417 55.6931 9.33145 55.5747 9.52759L51.7824 15.7993C51.6698 15.9855 51.5067 16.0339 51.3105 15.9155L49.8702 15.0446C49.7034 14.9438 49.6374 14.81 49.6636 14.6116L50.304 10.5422C50.3181 10.4301 50.2277 10.4026 50.1685 10.5006L48.2544 13.6661C48.1419 13.8523 47.9787 13.9007 47.7826 13.7823L46.6848 13.1184C46.4986 13.0058 46.4561 12.8327 46.5687 12.6465L50.361 6.37478C50.4794 6.17863 50.6466 6.14564 50.8328 6.25863L52.2732 7.12954L52.2736 7.12999Z" fill="#261005"/>
<path id="Vector_14" d="M15.467 9.96778C15.6238 9.85208 15.773 9.84214 15.9461 9.94202L19.4627 12.0879C19.5608 12.1435 19.6209 12.0707 19.5527 11.9785L17.358 9.00106C17.2219 8.81666 17.2554 8.64944 17.4307 8.52063L18.463 7.75955C18.6474 7.62351 18.8074 7.64791 18.9434 7.83231L23.2921 13.7321C23.4214 13.9074 23.4037 14.0765 23.2193 14.2125L21.8644 15.2113C21.7076 15.327 21.5589 15.337 21.3853 15.2371L17.8691 13.0912C17.7711 13.0356 17.711 13.1084 17.7788 13.2006L19.9734 16.1785C20.1027 16.3539 20.0851 16.5229 19.9007 16.6589L18.868 17.42C18.6926 17.5493 18.5168 17.5226 18.3875 17.3473L14.0388 11.4475C13.9028 11.2631 13.9363 11.0963 14.1116 10.9671L15.4666 9.96824L15.467 9.96778Z" fill="#261005"/>
<path id="Vector_15" d="M56.7253 20.8639C56.5292 21.0433 56.3407 21.0519 56.1775 20.8739L55.2637 19.8755C55.1087 19.706 55.1082 19.5261 55.2863 19.3634L56.0618 18.6534C56.2404 18.4903 56.248 18.3194 56.0849 18.1414L55.3835 17.3744C55.2284 17.2049 55.0495 17.1887 54.8709 17.3518L54.0954 18.0618C53.9173 18.225 53.7465 18.2173 53.5833 18.0392L52.6695 17.0404C52.5145 16.8709 52.5316 16.6752 52.7278 16.4958L56.5084 13.0366C57.6319 12.0088 58.9896 11.0936 60.8254 13.0998C62.6612 15.1061 61.6294 16.3778 60.5063 17.4056L56.7258 20.8648L56.7253 20.8639ZM59.1026 15.8708C59.5306 15.4794 59.6874 15.2209 59.1491 14.6324C58.6108 14.044 58.3397 14.1773 57.9117 14.5691L56.9395 15.4586C56.77 15.6136 56.7619 15.8016 56.9169 15.9706L57.6184 16.7376C57.7906 16.908 57.9614 16.9152 58.1395 16.7521L59.1026 15.8708Z" fill="#261005"/>
<path id="Vector_16" d="M9.72982 15.633C10.7327 14.3418 12.2788 13.8826 13.7287 14.937C14.3262 15.3722 15.3087 16.1347 15.9672 16.6739C17.3646 17.8141 17.2666 19.4389 16.2709 20.722C15.2685 22.0141 13.7535 22.4692 12.2635 21.4121C11.6059 20.9444 10.7119 20.2511 10.0426 19.6888C8.66774 18.5377 8.72739 16.9256 9.72982 15.6335V15.633ZM14.8111 19.5894C15.0791 19.2441 15.0696 18.8541 14.6213 18.464C14.1282 18.0392 12.8808 17.0716 12.2766 16.6449C11.8291 16.3268 11.4576 16.4212 11.1896 16.7665C10.9221 17.1113 10.923 17.4942 11.3356 17.8575C11.8481 18.3113 13.096 19.2794 13.6803 19.6762C14.1698 20.0138 14.5431 19.9347 14.8107 19.5894H14.8111Z" fill="#261005"/>
<path id="Vector_17" d="M5.30598 23.2498C5.93148 21.7389 7.3018 20.8879 8.97854 21.5215C9.67047 21.7832 10.8184 22.2591 11.5967 22.6053C13.2454 23.3361 13.5799 24.9292 12.9584 26.4292C12.3334 27.9401 10.992 28.7789 9.27547 28.1525C8.51754 27.875 7.47218 27.443 6.6781 27.0773C5.04881 26.3303 4.68047 24.7593 5.30598 23.2493V23.2498ZM11.2514 25.7233C11.4182 25.3192 11.3065 24.9455 10.771 24.6879C10.1839 24.4077 8.72499 23.8048 8.02899 23.553C7.51331 23.3636 7.18022 23.553 7.01345 23.9566C6.84623 24.3602 6.94746 24.7294 7.4419 24.9703C8.05565 25.2731 9.515 25.877 10.1839 26.1056C10.7448 26.3018 11.0842 26.1269 11.2509 25.7237L11.2514 25.7233Z" fill="#261005"/>
<path id="Vector_18" d="M36.1532 2.76278C37.7884 2.77137 39.0936 3.71866 39.1402 5.51065C39.1587 6.24959 39.1524 7.49291 39.1253 8.34348C39.0715 10.1463 37.7228 11.0565 36.0994 11.048C34.4643 11.0403 33.1812 10.1147 33.1125 8.28925C33.0831 7.48296 33.0885 6.35218 33.1269 5.47856C33.2038 3.68838 34.5185 2.75374 36.1532 2.76233V2.76278ZM36.1085 9.20129C36.5451 9.20264 36.8488 8.95814 36.8854 8.36517C36.922 7.71617 36.9301 6.13705 36.9007 5.39811C36.8813 4.84989 36.5799 4.61262 36.1437 4.61081C35.7071 4.60855 35.4034 4.84221 35.3668 5.39043C35.3189 6.07333 35.3108 7.65154 35.3519 8.35749C35.3822 8.95136 35.6723 9.19857 36.1085 9.20129Z" fill="#261005"/>
<path id="Vector_19" d="M44.8397 3.95999C46.417 4.39341 47.4316 5.64758 47.0113 7.38985C46.8373 8.10891 46.5078 9.30794 46.261 10.1233C45.7408 11.8502 44.201 12.3808 42.635 11.951C41.0582 11.5175 40.0589 10.2909 40.4661 8.50934C40.6478 7.72249 40.947 6.63148 41.2105 5.79808C41.7497 4.08744 43.2628 3.52747 44.8397 3.95999ZM43.124 10.168C43.5453 10.2832 43.9023 10.126 44.0912 9.56194C44.2955 8.94457 44.7145 7.42149 44.8776 6.69972C45.001 6.16461 44.7719 5.85774 44.3502 5.74204C43.9294 5.62634 43.5755 5.77277 43.3979 6.29342C43.1733 6.94061 42.7553 8.46369 42.612 9.15653C42.4868 9.73774 42.7028 10.0523 43.124 10.1685V10.168Z" fill="#261005"/>
<path id="Vector_20" d="M30.4932 60.8548C32.0868 61.224 33.1511 62.4366 32.8018 64.1956C32.6567 64.921 32.376 66.1322 32.1623 66.9566C31.7112 68.7034 30.1945 69.2954 28.6117 68.9289C27.0181 68.5597 25.9701 67.3737 26.3059 65.5772C26.4546 64.7836 26.7104 63.6817 26.9404 62.8379C27.41 61.1065 28.9001 60.486 30.4927 60.8548H30.4932ZM29.0289 67.1279C29.4546 67.2264 29.8049 67.0547 29.9716 66.4838C30.1511 65.8588 30.5072 64.3194 30.6414 63.5918C30.7431 63.0517 30.5018 62.7543 30.076 62.6553C29.6503 62.5568 29.3023 62.7182 29.1459 63.2451C28.948 63.9009 28.5918 65.4403 28.4761 66.1376C28.3749 66.7238 28.6031 67.0293 29.0289 67.1279Z" fill="#261005"/>
</g>
<defs>
<clipPath id="clip0_1060_445">
<rect width="72" height="72" fill="white"/>
</clipPath>
</defs>
</svg>
