<svg viewBox="0 0 347.97 61.37" xmlns:xlink="http://www.w3.org/1999/xlink" xmlns="http://www.w3.org/2000/svg" id="Layer_2"><defs><style>.cls-1{fill:none;}.cls-2{fill:#231b1b;}.cls-3{fill:#79bdaf;}.cls-4{clip-path:url(#clippath);}</style><clipPath id="clippath"><rect height="15.85" width="11" x="45.05" class="cls-1"></rect></clipPath></defs><g id="Layer_1-2"><path d="M0,36.94c.38-.38.63-.82.77-1.35.15-.53.23-1.2.23-2.02V11.73c0-.82-.08-1.49-.23-2.02-.14-.53-.4-.98-.77-1.35h8.52c.48,0,.91.09,1.27.27.36.18.71.56,1.06,1.15.34.58.73,1.45,1.17,2.58.43,1.13.96,2.66,1.6,4.58l2.69,8c.26.78.52,1.56.77,2.33.26.77.52,1.47.77,2.1.26.64.53,1.16.79,1.54.28.38.54.56.79.56.32,0,.55-.17.69-.5.15-.33.25-.74.29-1.23.04-.48.06-.95.06-1.4,0-1.82-.22-3.46-.67-4.94-.43-1.47-.97-2.8-1.6-3.98-.64-1.19-1.29-2.28-1.94-3.25-.64-.98-1.18-1.91-1.63-2.77-.43-.88-.65-1.72-.65-2.54,0-.88.32-1.51.96-1.92.64-.4,1.38-.6,2.21-.6h5.98c-.38.38-.64.83-.79,1.35-.14.53-.21,1.2-.21,2.02v21.83c0,.82.07,1.49.21,2.02.15.53.42.98.79,1.35h-7.48c-.82,0-1.53-.2-2.13-.6-.58-.42-1.08-.98-1.5-1.69-.41-.71-.77-1.5-1.1-2.38-.32-.89-.64-1.82-.96-2.79-.2-.57-.44-1.27-.73-2.1-.28-.83-.58-1.7-.9-2.6-.32-.9-.62-1.74-.9-2.52-.27-.78-.47-1.41-.63-1.9-.28-.78-.55-1.55-.81-2.31-.25-.78-.51-1.48-.77-2.13-.25-.64-.51-1.15-.77-1.52-.25-.39-.51-.58-.77-.58-.31,0-.54.17-.69.5-.16.33-.26.74-.31,1.23-.04.49-.06.95-.06,1.4,0,1.82.21,3.47.65,4.94.44,1.47.99,2.81,1.65,4,.65,1.18,1.3,2.27,1.94,3.25.64.97,1.17,1.9,1.6,2.77.44.86.67,1.7.67,2.52,0,.88-.32,1.52-.96,1.92-.64.41-1.39.6-2.23.6H0Z" class="cls-2"></path><path d="M27.05,34.41c-.99-1-1.72-2.13-2.21-3.4-.49-1.28-.72-2.58-.71-3.92.03-1.34.3-2.67.81-3.96.53-1.29,1.3-2.45,2.33-3.48,1.05-1.04,2.23-1.82,3.52-2.35,1.29-.53,2.6-.79,3.94-.79s2.57.24,3.79.73c1.23.49,2.34,1.23,3.31,2.23.98.99,1.72,2.12,2.21,3.4.48,1.27.71,2.57.69,3.92-.02,1.33-.29,2.65-.81,3.94-.52,1.28-1.29,2.43-2.31,3.46-1.06,1.06-2.23,1.85-3.52,2.4-1.29.53-2.61.79-3.96.79s-2.56-.24-3.79-.73c-1.22-.48-2.32-1.23-3.29-2.23ZM33.05,18.04c-.63.1-1.14.59-1.52,1.48-.39.89-.64,2.04-.73,3.44-.08,1.39,0,2.93.25,4.6.28,1.66.67,3.14,1.17,4.44.5,1.31,1.07,2.33,1.71,3.06.64.72,1.26,1.04,1.88.94.61-.09,1.1-.58,1.48-1.46.39-.88.63-2.01.73-3.42.09-1.42.02-2.96-.23-4.65-.25-1.67-.64-3.15-1.15-4.44-.5-1.3-1.06-2.32-1.69-3.04-.63-.73-1.26-1.05-1.9-.96Z" class="cls-2"></path><path d="M45.46,19.98c0-.15.05-.24.15-.27.09-.04.15-.07.17-.08.23-.13.59-.3,1.08-.54.48-.23,1.03-.5,1.65-.79.63-.29,1.26-.57,1.9-.83.65-.28,1.26-.51,1.81-.69.55-.18,1-.27,1.33-.27.42,0,.66.12.73.35.08.22.13.48.13.77v15.94c0,.82.07,1.49.21,2.02.15.53.42.98.79,1.35h-9.56c.38-.38.63-.82.77-1.35.15-.53.23-1.2.23-2.02v-10.98c0-.11-.01-.32-.02-.63-.02-.3-.08-.61-.21-.92-.11-.32-.35-.53-.71-.65-.04-.03-.13-.05-.25-.08-.13-.04-.19-.15-.19-.33ZM50.55,6.66c1.26,0,2.28.39,3.04,1.15.76.77,1.15,1.77,1.15,3.02s-.39,2.28-1.15,3.04c-.77.77-1.78,1.15-3.04,1.15s-2.26-.38-3.02-1.15c-.77-.76-1.15-1.78-1.15-3.04s.38-2.26,1.15-3.02c.76-.76,1.77-1.15,3.02-1.15Z" class="cls-2"></path><path d="M55.84,36.94c.38-.38.63-.82.77-1.35.15-.53.23-1.2.23-2.02v-13.27c0-.8-.08-1.47-.23-2-.14-.53-.4-.98-.77-1.35h7c.61,0,1.02.22,1.23.65.22.42.33.99.33,1.71v.5c0,.33.02.54.06.6.04.06.09.08.15.08.21,0,.41-.13.6-.4.21-.28.44-.61.71-1,.26-.4.6-.8,1.02-1.19.43-.4.95-.73,1.56-1,.63-.26,1.38-.4,2.27-.4.51,0,1.05.07,1.6.21.55.13,1.02.31,1.4.56.39.25.58.56.58.94,0,.18-.17.59-.5,1.23-.33.64-.68,1.32-1.04,2.04-.41.78-.77,1.49-1.1,2.13-.32.64-.61.96-.88.96-.31,0-.55-.13-.73-.38-.17-.26-.35-.55-.54-.88-.18-.33-.46-.63-.83-.88-.38-.26-.91-.4-1.58-.4-.81,0-1.41.21-1.79.63-.39.41-.65.9-.77,1.48-.13.57-.19,1.12-.19,1.65v7.77c0,.82.07,1.49.21,2.02.15.53.42.98.79,1.35h-9.56Z" class="cls-2"></path><path d="M100.16,36.94h-15.23c.38-.38.63-.82.77-1.35.15-.53.23-1.2.23-2.02V11.73c0-.82-.08-1.49-.23-2.02-.14-.53-.4-.98-.77-1.35h8.77c.78,0,1.38.14,1.81.4.43.27.73.6.9,1,.18.39.27.77.27,1.15,0,.71-.2,1.43-.6,2.17-.41.74-.93,1.49-1.56,2.27-.63.77-1.29,1.56-2,2.4-.7.83-1.36,1.71-2,2.63-.63.92-1.14,1.88-1.54,2.88-.39,1-.58,2.06-.58,3.17,0,.63.09,1.33.29,2.13.21.79.51,1.6.9,2.42.39.82.88,1.58,1.46,2.27.59.7,1.29,1.25,2.08,1.67s1.67.63,2.65.63c.61,0,1.2-.09,1.77-.29.57-.19,1.03-.49,1.4-.9.38-.4.56-.9.56-1.5,0-.75-.16-1.4-.48-1.94-.32-.55-.72-1.06-1.21-1.52-.47-.46-.95-.94-1.44-1.44-.49-.5-.89-1.09-1.21-1.77-.32-.68-.48-1.51-.48-2.5,0-.72.17-1.4.52-2.02.34-.64.81-1.15,1.4-1.54.59-.39,1.26-.58,2-.58.44,0,1.03.09,1.75.27.73.17,1.46.4,2.19.69.72.28,1.32.61,1.81,1,.5.38.75.77.75,1.19,0,.56-.16.99-.46,1.31-.31.32-.7.58-1.17.79-.47.2-.97.38-1.5.54-.53.17-1.03.34-1.5.52-.47.18-.86.43-1.17.73-.31.31-.46.72-.46,1.23,0,.42.15.78.46,1.08.32.31.72.59,1.21.85.48.25,1.01.52,1.56.79.55.28,1.07.6,1.56.96.48.36.88.79,1.19,1.29.32.5.48,1.11.48,1.83,0,.66-.16,1.15-.48,1.48-.31.33-.72.56-1.23.69-.52.11-1.08.18-1.69.19h-1.75Z" class="cls-2"></path><path d="M105.74,16.94h9.56c-.38.38-.64.83-.79,1.35-.14.53-.21,1.2-.21,2v9.29c0,.66.11,1.24.33,1.77.23.53.67.79,1.31.79.43,0,.83-.11,1.21-.35.39-.25.7-.67.94-1.25.23-.59.35-1.42.35-2.46v-7.79c0-.8-.07-1.47-.21-2-.14-.53-.41-.98-.79-1.35h9.58c-.38.38-.64.83-.79,1.35-.14.53-.21,1.2-.21,2v13.27c0,.82.07,1.49.21,2.02.15.53.42.98.79,1.35h-7c-.61,0-1.03-.21-1.25-.65-.22-.43-.33-1.01-.33-1.73v-.48c0-.34-.02-.55-.06-.6-.03-.05-.07-.08-.13-.08-.24,0-.47.14-.69.4-.21.27-.47.6-.77,1-.29.39-.66.79-1.08,1.19-.42.39-.96.72-1.63.98-.66.28-1.47.42-2.44.42-1.06,0-1.91-.2-2.54-.6-.64-.42-1.14-.96-1.48-1.65-.33-.68-.56-1.41-.69-2.19-.13-.78-.19-1.54-.19-2.29l-.02-5.46v-4.9c0-.8-.08-1.47-.23-2-.14-.53-.4-.98-.77-1.35Z" class="cls-2"></path><path d="M127.6,16.94h10c-.14.33-.08.96.19,1.88.28.91.69,1.97,1.25,3.21.57,1.22,1.2,2.51,1.9,3.85.15.21.34.31.56.31s.46-.19.69-.56c.23-.39.35-1.05.35-1.98,0-1.33-.31-2.57-.92-3.73-.61-1.17-1.36-2.16-2.25-2.98h6.4c.51,0,.97.24,1.38.71.42.46.63,1.05.63,1.77,0,.88-.19,1.74-.56,2.6-.36.86-.85,1.67-1.46,2.42-.6.74-1.24,1.38-1.94,1.92-.7.54-1.36.94-2,1.19.61,1.1,1.22,2.17,1.83,3.21.63,1.04,1.21,1.99,1.77,2.85.57.85,1.07,1.57,1.52,2.17.44.58.8.97,1.06,1.17h-10c.15-.36.09-.98-.19-1.88-.28-.9-.7-1.96-1.25-3.19-.54-1.23-1.18-2.53-1.9-3.88-.16-.22-.33-.33-.54-.33-.25,0-.49.2-.73.58-.22.38-.33,1.04-.33,1.98,0,1.33.3,2.58.92,3.73.61,1.16,1.36,2.15,2.25,2.98h-6.4c-.52,0-.98-.23-1.4-.69-.41-.47-.6-1.07-.6-1.79,0-.88.18-1.74.54-2.6.38-.86.86-1.66,1.46-2.4.61-.75,1.26-1.4,1.96-1.94.69-.54,1.36-.94,2-1.19-.6-1.11-1.21-2.18-1.83-3.21-.63-1.04-1.22-1.99-1.79-2.85-.56-.86-1.06-1.58-1.5-2.17-.45-.59-.8-.98-1.06-1.17Z" class="cls-2"></path><path d="M170.58,37.37c-1.6,0-3.1-.31-4.5-.92-1.41-.61-2.64-1.53-3.69-2.75-1.06-1.22-1.89-2.76-2.5-4.6-.6-1.84-.9-4-.9-6.46,0-1.42.13-2.82.4-4.23.28-1.42.69-2.75,1.23-4,.55-1.26,1.24-2.38,2.06-3.35.82-.97,1.78-1.73,2.9-2.29,1.13-.57,2.39-.85,3.79-.85.75,0,1.46.1,2.13.29.68.2,1.38.39,2.08.58.72.18,1.51.27,2.38.27.67,0,1.19-.09,1.58-.27.39-.19.72-.39,1-.58.28-.19.56-.29.85-.29.38,0,.59.22.65.65.05.43.01.97-.13,1.6-.14.64-.35,1.27-.63,1.9-.13.31-.29.66-.5,1.04-.21.38-.46.76-.75,1.15-.31.39-.68.81-1.13,1.27-.43.45-.85.92-1.27,1.42-.41.49-.74.99-1.02,1.5-.28.52-.42,1.03-.42,1.54s.15.91.46,1.25c.3.35.71.52,1.21.52.3,0,.48-.04.54-.13.05-.09.16-.15.31-.15.22,0,.38.2.48.58.09.38.15.7.15.98,0,.71-.21,1.39-.63,2.02-.42.63-.97,1.14-1.67,1.52-.7.39-1.45.58-2.25.58s-1.47-.19-2.13-.56c-.64-.38-1.16-.86-1.54-1.48-.39-.63-.58-1.32-.58-2.08,0-.86.19-1.6.58-2.23.4-.63.9-1.17,1.48-1.63s1.17-.84,1.75-1.17c.59-.33,1.09-.63,1.5-.88.4-.26.6-.51.6-.73,0-.36-.27-.59-.81-.69-.97-.15-1.84-.41-2.6-.77-.77-.36-1.48-.73-2.15-1.13-.67-.39-1.34-.72-2.02-1-.68-.28-1.43-.42-2.25-.42-.49,0-.89.14-1.19.4-.31.25-.54.57-.71.96-.17.38-.29.76-.35,1.15-.07.38-.1.7-.1.96,0,1.18.15,2.45.44,3.79.3,1.33.74,2.66,1.31,3.96.57,1.29,1.28,2.47,2.13,3.54.84,1.07,1.82,1.93,2.94,2.56,1.13.64,2.36.96,3.73.96,1.01,0,1.84-.15,2.48-.44.65-.29,1.18-.65,1.58-1.06.42-.42.75-.83,1-1.25.26-.42.51-.77.73-1.06.22-.29.48-.44.77-.44.17,0,.32.1.48.29.15.18.23.6.23,1.27,0,.91-.22,1.91-.65,3-.42,1.08-1.03,2.1-1.83,3.06-.81.96-1.8,1.75-2.98,2.38-1.18.63-2.54.94-4.06.94Z" class="cls-2"></path><path d="M181.37,32.48c0-1.53.3-2.86.92-4.02.61-1.15,1.44-2.14,2.48-2.96,1.04-.83,2.2-1.51,3.48-2.04,1.29-.54,2.6-.96,3.94-1.25.42-.08.69-.25.81-.5.14-.25.21-.5.21-.75,0-.42-.06-.84-.19-1.29-.13-.46-.36-.84-.71-1.15-.35-.32-.88-.47-1.58-.46-.72.03-1.39.24-1.98.65-.58.39-1.12.88-1.6,1.46-.49.58-.95,1.17-1.38,1.75-.42.58-.81,1.07-1.19,1.46-.36.39-.72.58-1.08.58-.24,0-.45-.09-.63-.27-.18-.18-.27-.4-.27-.65v-1.56c0-.5,0-.98.02-1.46.01-.48.2-.9.56-1.23.97-.93,2.17-1.54,3.58-1.83,1.42-.3,2.88-.46,4.4-.46,1.64,0,3.06.26,4.27.77,1.22.5,2.23,1.17,3.02,2,.79.82,1.38,1.74,1.77,2.75.39,1.02.58,2.04.58,3.06v8.48c0,.82.07,1.49.21,2.02.15.53.42.98.79,1.35h-7c-.83,0-1.33-.41-1.48-1.23-.04-.25-.13-.48-.25-.69s-.29-.31-.5-.31c-.31,0-.6.14-.9.4-.29.27-.66.58-1.08.94-.42.35-.95.66-1.6.92-.66.28-1.49.42-2.52.42-.92,0-1.77-.22-2.54-.67-.77-.44-1.39-1.03-1.85-1.75-.47-.73-.71-1.56-.71-2.48ZM192.19,24.08c-.61,0-1.23.24-1.85.71-.61.46-1.12,1.11-1.52,1.96-.41.85-.6,1.86-.6,3.04,0,.67.08,1.3.25,1.9.17.6.44,1.09.83,1.48.39.38.94.56,1.65.56.78,0,1.35-.3,1.73-.92.39-.63.58-1.4.58-2.33s-.01-1.68-.02-2.33c-.02-.65-.02-1.42-.02-2.29,0-.65-.08-1.11-.23-1.38-.16-.26-.42-.4-.79-.4Z" class="cls-2"></path><path d="M211.81,36.94h-9.56c.38-.38.63-.82.77-1.35.15-.53.23-1.2.23-2.02v-13.27c0-.8-.08-1.47-.23-2-.14-.53-.4-.98-.77-1.35h7c.61,0,1.02.22,1.23.65.22.42.33.99.33,1.71v.5c0,.33.02.54.06.6.04.06.09.08.15.08.22,0,.44-.13.67-.4.22-.28.48-.61.77-1,.29-.4.65-.8,1.08-1.19.43-.4.97-.73,1.63-1,.67-.26,1.48-.4,2.46-.4,1.04,0,1.88.21,2.52.63.64.41,1.13.95,1.48,1.63.34.67.57,1.4.69,2.19.13.78.19,1.54.19,2.27l.04,5.46v4.9c0,.82.07,1.49.21,2.02.14.53.4.98.79,1.35h-9.58c.39-.38.65-.82.79-1.35.14-.53.21-1.2.21-2.02v-9.29c0-.67-.12-1.26-.35-1.77-.22-.51-.65-.77-1.27-.77-.45,0-.85.12-1.23.35-.38.24-.69.65-.94,1.23-.24.58-.35,1.41-.35,2.48v7.77c0,.82.07,1.49.21,2.02.15.53.42.98.79,1.35Z" class="cls-2"></path><path d="M232.49,37.37c-1.72,0-3.19-.45-4.4-1.35-1.2-.92-2.11-2.13-2.75-3.65-.64-1.51-.96-3.19-.96-5.04,0-1.29.16-2.57.48-3.85.32-1.28.8-2.44,1.46-3.48.65-1.05,1.48-1.9,2.5-2.54,1.03-.64,2.25-.96,3.67-.96.79,0,1.46.12,2,.35.54.22.99.48,1.35.77.38.29.67.56.9.79.22.22.4.33.54.33.05,0,.15-.03.27-.08.13-.07.19-.28.19-.65v-4c0-.13-.02-.33-.04-.63-.02-.29-.1-.59-.27-.9-.16-.3-.46-.53-.92-.69-.04-.01-.13-.04-.25-.08s-.19-.15-.19-.31c0-.15.05-.25.15-.29.09-.04.16-.07.19-.08.22-.09.58-.26,1.08-.5.51-.23,1.09-.5,1.75-.79.65-.3,1.31-.59,1.98-.88.67-.28,1.28-.51,1.85-.69.58-.18,1.04-.27,1.38-.27.43,0,.68.12.75.35.08.22.13.48.13.77v24.52c0,.82.07,1.49.21,2.02.14.53.4.98.79,1.35h-7.02c-.6,0-1.01-.21-1.23-.63-.22-.42-.33-.99-.33-1.73v-.27c0-.21-.06-.28-.19-.21-.13.06-.24.16-.33.31-.49.82-1.01,1.45-1.56,1.88-.54.42-1.08.7-1.63.85-.54.15-1.06.23-1.54.23ZM235.67,19.5c-.79,0-1.43.22-1.92.65-.49.43-.87,1-1.15,1.71-.27.7-.45,1.45-.54,2.27-.08.82-.13,1.63-.13,2.42s.02,1.66.06,2.52c.04.85.16,1.64.35,2.35.21.71.53,1.29.98,1.73.46.43,1.08.65,1.88.65.57,0,1.02-.15,1.35-.46.33-.32.58-.72.75-1.21.18-.48.29-.98.33-1.48.05-.51.08-.97.08-1.38v-5.56c0-.36-.03-.78-.08-1.25-.04-.48-.14-.95-.27-1.4-.14-.44-.35-.81-.63-1.1-.28-.3-.64-.46-1.08-.46Z" class="cls-2"></path><path d="M246.6,11.81s-.13-.04-.25-.08-.19-.15-.19-.31c0-.15.05-.25.15-.29.1-.04.15-.07.17-.08.23-.11.6-.28,1.1-.52.51-.25,1.09-.52,1.73-.81.65-.29,1.31-.57,1.98-.83.68-.28,1.3-.51,1.88-.69.58-.18,1.04-.27,1.38-.27.42,0,.66.12.73.35.08.22.13.48.13.77v24.52c0,.82.07,1.49.21,2.02.15.53.42.98.79,1.35h-7c-.61,0-1.03-.21-1.25-.63-.21-.42-.31-.99-.31-1.73V14.02c0-.13-.01-.33-.02-.63-.02-.3-.1-.61-.27-.94-.17-.32-.48-.53-.94-.65Z" class="cls-2"></path><path d="M257.39,27.48c0-2.09.39-3.96,1.17-5.6.79-1.65,1.94-2.96,3.46-3.92,1.53-.97,3.41-1.46,5.65-1.46,1.69,0,3.13.36,4.31,1.08,1.19.72,2.1,1.67,2.73,2.83s.94,2.41.94,3.71c0,.96-.23,1.7-.69,2.23-.45.52-1.06.89-1.83,1.1-.77.22-1.64.35-2.6.4-.97.03-1.99.02-3.04-.02-1.06-.04-2.09-.06-3.1-.06-.14,0-.29.02-.44.04-.14.03-.21.17-.21.42s.25.58.75,1.02c.5.43,1.15.88,1.94,1.33.8.46,1.67.84,2.58,1.15.92.31,1.78.46,2.6.46.69,0,1.25-.07,1.67-.23.42-.15.75-.32,1-.5.25-.19.45-.36.6-.52.17-.15.32-.23.46-.23.08,0,.17.04.27.13.11.07.17.23.17.48,0,.53-.16,1.14-.48,1.83-.31.7-.78,1.36-1.42,2-.64.64-1.46,1.18-2.46,1.6-1,.42-2.19.63-3.56.63s-2.68-.25-3.94-.75c-1.25-.5-2.36-1.19-3.33-2.08-.97-.9-1.75-1.95-2.33-3.15-.57-1.21-.85-2.51-.85-3.92ZM260.6,22.25c0,.67.11,1.32.33,1.96.22.64.57,1.17,1.04,1.58.48.41,1.11.6,1.88.6.67,0,1.34-.02,2.02-.06.69-.05,1.33-.15,1.92-.29.58-.15,1.05-.36,1.4-.65.36-.29.54-.67.54-1.15,0-.75-.19-1.41-.56-1.98-.38-.57-.86-1.05-1.46-1.46-.6-.4-1.23-.7-1.9-.9-.67-.19-1.31-.29-1.92-.29-.54,0-1.06.1-1.56.31s-.92.51-1.25.9c-.32.39-.48.86-.48,1.42Z" class="cls-2"></path><path d="M287.64,11.73c0-.82-.08-1.49-.23-2.02-.14-.53-.4-.98-.77-1.35h12.29c1.84,0,3.36.34,4.54,1.02,1.19.67,2.08,1.54,2.67,2.63.58,1.07.88,2.22.88,3.44,0,.81-.17,1.64-.5,2.48-.33.85-.83,1.64-1.5,2.35-.67.71-1.5,1.29-2.5,1.73-.99.43-2.14.65-3.44.65-1.06,0-2.08-.1-3.08-.31s-1.91-.41-2.73-.6c-.82-.21-1.49-.31-2.02-.31-.2,0-.35.04-.48.13-.13.07-.19.18-.19.33,0,.29.28.54.83.73.57.2,1.29.35,2.17.48s1.78.24,2.73.33c.94.08,1.8.16,2.56.23,2.92.29,5.05,1.06,6.4,2.29,1.36,1.22,2.04,2.81,2.04,4.77,0,1.13-.31,2.16-.94,3.1-.63.95-1.46,1.7-2.5,2.27-1.04.57-2.22.85-3.54.85h-13.69c.38-.38.63-.82.77-1.35.15-.53.23-1.2.23-2.02V11.73ZM296.85,14.06c-.97,0-1.93.1-2.85.31-.93.2-1.76.48-2.48.85-.72.38-1.3.81-1.73,1.29-.43.49-.65,1.02-.65,1.58,0,.66.3,1.16.9,1.5.59.35,1.28.52,2.06.52,1.64,0,3.03-.21,4.19-.63,1.15-.42,2.03-.93,2.65-1.54.61-.61.92-1.2.92-1.77s-.27-1.06-.79-1.48c-.52-.43-1.25-.65-2.21-.65ZM289.51,23.64c-.13,0-.22.04-.27.1-.04.07-.06.14-.06.21,0,.17.11.42.33.75.23.32.51.66.83,1.02.32.36.6.7.85,1,.54.61,1.14,1.28,1.79,2,.65.71,1.38,1.32,2.19,1.83.82.5,1.69.75,2.6.75.57,0,1.02-.11,1.35-.33.33-.22.57-.48.71-.79.15-.32.23-.63.23-.92,0-.69-.41-1.4-1.23-2.13-.82-.73-2.29-1.42-4.42-2.06-1.52-.48-2.63-.84-3.33-1.08-.7-.23-1.22-.35-1.58-.35Z" class="cls-2"></path><path d="M308.57,32.48c0-1.53.3-2.86.92-4.02.61-1.15,1.44-2.14,2.48-2.96,1.04-.83,2.2-1.51,3.48-2.04,1.29-.54,2.6-.96,3.94-1.25.42-.08.69-.25.81-.5.14-.25.21-.5.21-.75,0-.42-.06-.84-.19-1.29-.13-.46-.36-.84-.71-1.15-.35-.32-.88-.47-1.58-.46-.72.03-1.39.24-1.98.65-.58.39-1.12.88-1.6,1.46-.49.58-.95,1.17-1.38,1.75-.42.58-.81,1.07-1.19,1.46-.36.39-.72.58-1.08.58-.24,0-.45-.09-.63-.27-.18-.18-.27-.4-.27-.65v-1.56c0-.5,0-.98.02-1.46.01-.48.2-.9.56-1.23.97-.93,2.17-1.54,3.58-1.83,1.42-.3,2.88-.46,4.4-.46,1.64,0,3.06.26,4.27.77,1.22.5,2.23,1.17,3.02,2,.79.82,1.38,1.74,1.77,2.75.39,1.02.58,2.04.58,3.06v8.48c0,.82.07,1.49.21,2.02.15.53.42.98.79,1.35h-7c-.83,0-1.33-.41-1.48-1.23-.04-.25-.13-.48-.25-.69s-.29-.31-.5-.31c-.31,0-.6.14-.9.4-.29.27-.66.58-1.08.94-.42.35-.95.66-1.6.92-.66.28-1.49.42-2.52.42-.92,0-1.77-.22-2.54-.67-.77-.44-1.39-1.03-1.85-1.75-.47-.73-.71-1.56-.71-2.48ZM319.39,24.08c-.61,0-1.23.24-1.85.71-.61.46-1.12,1.11-1.52,1.96-.41.85-.6,1.86-.6,3.04,0,.67.08,1.3.25,1.9.17.6.44,1.09.83,1.48.39.38.94.56,1.65.56.78,0,1.35-.3,1.73-.92.39-.63.58-1.4.58-2.33s-.01-1.68-.02-2.33c-.02-.65-.02-1.42-.02-2.29,0-.65-.08-1.11-.23-1.38-.16-.26-.42-.4-.79-.4Z" class="cls-2"></path><path d="M329.45,36.94c.38-.38.63-.82.77-1.35.15-.53.23-1.2.23-2.02v-13.27c0-.8-.08-1.47-.23-2-.14-.53-.4-.98-.77-1.35h7c.61,0,1.02.22,1.23.65.22.42.33.99.33,1.71v.5c0,.33.02.54.06.6.04.06.09.08.15.08.21,0,.41-.13.6-.4.21-.28.44-.61.71-1,.26-.4.6-.8,1.02-1.19.43-.4.95-.73,1.56-1,.63-.26,1.38-.4,2.27-.4.51,0,1.05.07,1.6.21.55.13,1.02.31,1.4.56.39.25.58.56.58.94,0,.18-.17.59-.5,1.23-.33.64-.68,1.32-1.04,2.04-.41.78-.77,1.49-1.1,2.13-.32.64-.61.96-.88.96-.31,0-.55-.13-.73-.38-.17-.26-.35-.55-.54-.88-.18-.33-.46-.63-.83-.88-.38-.26-.91-.4-1.58-.4-.81,0-1.41.21-1.79.63-.39.41-.65.9-.77,1.48-.13.57-.19,1.12-.19,1.65v7.77c0,.82.07,1.49.21,2.02.15.53.42.98.79,1.35h-9.56Z" class="cls-2"></path><g class="cls-4"><path d="M48.53,0s2.27,3.1.68,5c-.91,1.09-1.54,1.68-1.9,1.98-.59.49-1.1,1.08-1.48,1.74-1.03,1.76-1.8,4.8,2.8,7.13,0,0-2.65-2.59.88-6.46,0,0,0,2.5.76,2.81.77.31,1.41-2.09,1.41-2.09,0,0,2.29,3.93.67,5.64,0,0,6.13-1.34,3.4-8.61,0,0-.31,1.56-1.76,1.8C53.98,8.94,55.91,1.97,48.53,0" class="cls-3"></path></g><path d="M15.75,61.37l-4.67-12.42-4.69,12.42-3.33-15.42h1.52l2.19,10.38,4.31-11.21,4.27,11.21,2.23-10.38h1.48l-3.31,15.42Z" class="cls-3"></path><path d="M34.32,61.37l-4.67-12.42-4.69,12.42-3.33-15.42h1.52l2.19,10.38,4.31-11.21,4.27,11.21,2.23-10.38h1.48l-3.31,15.42Z" class="cls-3"></path><path d="M52.9,61.37l-4.67-12.42-4.69,12.42-3.33-15.42h1.52l2.19,10.38,4.31-11.21,4.27,11.21,2.23-10.38h1.48l-3.31,15.42Z" class="cls-3"></path><path d="M61.38,60.43c-.32,0-.6-.12-.83-.35-.25-.22-.38-.49-.38-.81s.11-.6.35-.85c.23-.23.52-.35.85-.35s.63.11.88.33c.23.25.35.54.35.85,0,.33-.13.61-.38.83-.25.23-.54.35-.85.35Z" class="cls-3"></path><path d="M69.39,49.7v10.52h-1.46v-15.17l8,11.4v-10.5h1.48v15.15l-8.02-11.4Z" class="cls-3"></path><path d="M95.27,53.06c0-1.61-.58-2.99-1.73-4.15-1.14-1.14-2.52-1.71-4.15-1.71s-2.99.57-4.15,1.71c-1.14,1.16-1.71,2.54-1.71,4.15s.57,2.99,1.71,4.15c1.15,1.16,2.53,1.73,4.15,1.73s3.01-.57,4.15-1.73c1.15-1.15,1.73-2.53,1.73-4.15ZM96.73,53.06c0,1-.19,1.95-.56,2.85-.39.89-.92,1.66-1.58,2.31-.67.68-1.45,1.21-2.33,1.58-.91.39-1.85.58-2.85.58s-1.96-.19-2.83-.58c-.91-.38-1.68-.9-2.33-1.58-.67-.65-1.19-1.42-1.56-2.31-.41-.9-.6-1.85-.6-2.85s.2-1.96.6-2.85c.38-.9.9-1.68,1.56-2.33.65-.65,1.43-1.18,2.33-1.58.88-.38,1.82-.56,2.83-.56s1.95.19,2.85.56c.89.41,1.67.93,2.33,1.58.67.66,1.19,1.43,1.58,2.33.38.89.56,1.84.56,2.85Z" class="cls-3"></path><path d="M102.87,60.22h-1.46v-14.27h1.46v14.27Z" class="cls-3"></path><path d="M109.65,53.18h3.31c.83,0,1.51-.28,2.04-.85.54-.57.81-1.27.81-2.1s-.26-1.52-.77-2.06c-.52-.53-1.21-.79-2.08-.79h-3.31v5.81ZM117.29,50.26c0,1.24-.45,2.27-1.33,3.1-.78.72-1.72,1.12-2.83,1.19l4.4,5.67h-1.98l-4.17-5.65h-1.73v5.65h-1.46v-14.27h4.56c1.28,0,2.34.41,3.21,1.21.89.83,1.33,1.87,1.33,3.1Z" class="cls-3"></path><path d="M123.21,58.76h5.1v1.46h-6.56v-14.27h1.46v12.81Z" class="cls-3"></path><path d="M142.78,55.49c0,1.54-.51,2.77-1.52,3.67-.95.83-2.21,1.25-3.79,1.25s-2.87-.42-3.81-1.25c-1.02-.9-1.52-2.13-1.52-3.67v-9.54h1.48v9.75c0,1.08.39,1.91,1.17,2.48.68.52,1.57.77,2.69.77,1.75,0,2.92-.59,3.52-1.77.21-.4.31-.9.31-1.48v-9.75h1.48v9.54Z" class="cls-3"></path><path d="M156.65,60.22l-4.1-6.08-4.1,6.08h-1.81l5.02-7.1-5.04-7.17h1.83l4.1,6.08,4.1-6.08h1.81l-5.02,7.15,5.02,7.13h-1.81Z" class="cls-3"></path><path d="M175.73,55.87c-.53,1.36-1.4,2.46-2.6,3.29-1.22.85-2.56,1.27-4,1.27-1.97,0-3.66-.73-5.06-2.19-1.38-1.42-2.06-3.13-2.06-5.13,0-1,.18-1.94.54-2.83.38-.89.88-1.67,1.52-2.33,1.4-1.46,3.09-2.19,5.06-2.19,1.44,0,2.77.42,3.98,1.25s2.07,1.93,2.6,3.29h-1.63c-.77-1.42-1.91-2.35-3.44-2.81-.5-.14-1.08-.21-1.73-.21s-1.34.16-2.02.46c-.68.32-1.28.74-1.79,1.27-1.08,1.14-1.63,2.51-1.63,4.1s.54,2.93,1.63,4.06c1.11,1.17,2.45,1.75,4.02,1.75,1.05,0,2.03-.28,2.94-.85.88-.55,1.55-1.29,2.04-2.21h1.63Z" class="cls-3"></path><path d="M182.38,54.97h5.19l-2.58-6.56-2.6,6.56ZM191.24,60.22h-1.58l-1.54-3.88h-6.27l-1.52,3.88h-1.6l6.27-15.25,6.25,15.25Z" class="cls-3"></path><path d="M196.65,49.7v10.52h-1.46v-15.17l8,11.4v-10.5h1.48v15.15l-8.02-11.4Z" class="cls-3"></path><path d="M221.03,53.1c0,1.03-.19,1.98-.56,2.85-.39.88-.91,1.63-1.56,2.25-.67.64-1.45,1.14-2.33,1.48-.91.36-1.86.54-2.88.54h-3.73v-14.27h3.73c1.01,0,1.97.18,2.88.52.89.38,1.67.88,2.33,1.5.65.63,1.17,1.38,1.56,2.25.38.88.56,1.83.56,2.88ZM219.62,53.1c0-1.63-.58-2.98-1.73-4.08-1.11-1.05-2.49-1.58-4.15-1.58h-2.31v11.33h2.31c1.65,0,3.03-.53,4.15-1.6,1.15-1.09,1.73-2.45,1.73-4.06Z" class="cls-3"></path><path d="M227.18,58.76h5.1v1.46h-6.56v-14.27h1.46v12.81Z" class="cls-3"></path><path d="M244.89,60.22h-8.46v-14.27h8.46v1.38h-7v5.06h6.79v1.4h-6.79v5.08h7v1.35Z" class="cls-3"></path><path d="M263.29,55.87c-.53,1.36-1.4,2.46-2.6,3.29-1.22.85-2.56,1.27-4,1.27-1.97,0-3.66-.73-5.06-2.19-1.38-1.42-2.06-3.13-2.06-5.13,0-1,.18-1.94.54-2.83.38-.89.88-1.67,1.52-2.33,1.4-1.46,3.09-2.19,5.06-2.19,1.44,0,2.77.42,3.98,1.25s2.07,1.93,2.6,3.29h-1.63c-.77-1.42-1.91-2.35-3.44-2.81-.5-.14-1.08-.21-1.73-.21s-1.34.16-2.02.46c-.68.32-1.28.74-1.79,1.27-1.08,1.14-1.63,2.51-1.63,4.1s.54,2.93,1.63,4.06c1.11,1.17,2.45,1.75,4.02,1.75,1.05,0,2.03-.28,2.94-.85.88-.55,1.55-1.29,2.04-2.21h1.63Z" class="cls-3"></path><path d="M280.22,53.06c0-1.61-.58-2.99-1.73-4.15-1.14-1.14-2.52-1.71-4.15-1.71s-2.99.57-4.15,1.71c-1.14,1.16-1.71,2.54-1.71,4.15s.57,2.99,1.71,4.15c1.15,1.16,2.53,1.73,4.15,1.73s3.01-.57,4.15-1.73c1.15-1.15,1.73-2.53,1.73-4.15ZM281.68,53.06c0,1-.19,1.95-.56,2.85-.39.89-.92,1.66-1.58,2.31-.67.68-1.45,1.21-2.33,1.58-.91.39-1.85.58-2.85.58s-1.96-.19-2.83-.58c-.91-.38-1.68-.9-2.33-1.58-.67-.65-1.19-1.42-1.56-2.31-.41-.9-.6-1.85-.6-2.85s.2-1.96.6-2.85c.38-.9.9-1.68,1.56-2.33.65-.65,1.43-1.18,2.33-1.58.88-.38,1.82-.56,2.83-.56s1.95.19,2.85.56c.89.41,1.67.93,2.33,1.58.67.66,1.19,1.43,1.58,2.33.38.89.56,1.84.56,2.85Z" class="cls-3"></path><path d="M287.57,60.43c-.32,0-.6-.12-.83-.35-.25-.22-.38-.49-.38-.81s.11-.6.35-.85c.23-.23.52-.35.85-.35s.63.11.88.33c.23.25.35.54.35.85,0,.33-.13.61-.38.83-.25.23-.54.35-.85.35Z" class="cls-3"></path><path d="M307.2,55.87c-.53,1.36-1.4,2.46-2.6,3.29-1.22.85-2.56,1.27-4,1.27-1.97,0-3.66-.73-5.06-2.19-1.38-1.42-2.06-3.13-2.06-5.13,0-1,.18-1.94.54-2.83.38-.89.88-1.67,1.52-2.33,1.4-1.46,3.09-2.19,5.06-2.19,1.44,0,2.77.42,3.98,1.25s2.07,1.93,2.6,3.29h-1.63c-.77-1.42-1.91-2.35-3.44-2.81-.5-.14-1.08-.21-1.73-.21s-1.34.16-2.02.46c-.68.32-1.28.74-1.79,1.27-1.08,1.14-1.63,2.51-1.63,4.1s.54,2.93,1.63,4.06c1.11,1.17,2.45,1.75,4.02,1.75,1.05,0,2.03-.28,2.94-.85.88-.55,1.55-1.29,2.04-2.21h1.63Z" class="cls-3"></path><path d="M324.13,53.06c0-1.61-.58-2.99-1.73-4.15-1.14-1.14-2.52-1.71-4.15-1.71s-2.99.57-4.15,1.71c-1.14,1.16-1.71,2.54-1.71,4.15s.57,2.99,1.71,4.15c1.15,1.16,2.53,1.73,4.15,1.73s3.01-.57,4.15-1.73c1.15-1.15,1.73-2.53,1.73-4.15ZM325.59,53.06c0,1-.19,1.95-.56,2.85-.39.89-.92,1.66-1.58,2.31-.67.68-1.45,1.21-2.33,1.58-.91.39-1.85.58-2.85.58s-1.96-.19-2.83-.58c-.91-.38-1.68-.9-2.33-1.58-.67-.65-1.19-1.42-1.56-2.31-.41-.9-.6-1.85-.6-2.85s.2-1.96.6-2.85c.38-.9.9-1.68,1.56-2.33.65-.65,1.43-1.18,2.33-1.58.88-.38,1.82-.56,2.83-.56s1.95.19,2.85.56c.89.41,1.67.93,2.33,1.58.67.66,1.19,1.43,1.58,2.33.38.89.56,1.84.56,2.85Z" class="cls-3"></path><path d="M343.41,60.22l-2.23-10.15-4.27,10.98-4.31-10.98-2.19,10.15h-1.52l3.33-15.21,4.69,12.21,4.67-12.21,3.31,15.21h-1.48Z" class="cls-3"></path></g></svg>