<svg xmlns="http://www.w3.org/2000/svg" width="201.465" height="100.242" viewBox="0 0 201.465 100.242">
  <defs>
    <style>
      .cls-1 {
        fill: #fff;
      }

      .cls-2 {
        fill: #877e55;
      }
    </style>
  </defs>
  <g id="Group_4320" data-name="Group 4320" transform="translate(-45.638 -38.341)">
    <g id="Group_4301" data-name="Group 4301" transform="translate(100.883 124.502)">
      <path id="Path_99" data-name="Path 99" class="cls-1" d="M189.9,267.967a5.683,5.683,0,0,1-2.288-.475,5.853,5.853,0,0,1-1.939-1.366,6.666,6.666,0,0,1-1.334-2.18,7.98,7.98,0,0,1-.5-2.9,8.366,8.366,0,0,1,.488-2.929,6.881,6.881,0,0,1,1.353-2.265A5.945,5.945,0,0,1,187.7,254.4a6.119,6.119,0,0,1,2.49-.512,6.01,6.01,0,0,1,1.784.247,6.559,6.559,0,0,1,1.521.692l.385-.645h.752l.084,4.8h-.771a11.384,11.384,0,0,0-.451-1.523,5.908,5.908,0,0,0-.7-1.39,3.414,3.414,0,0,0-1.07-1.011,2.736,2.736,0,0,0-1.417-.365,3.615,3.615,0,0,0-1.7.408,3.878,3.878,0,0,0-1.357,1.206,5.982,5.982,0,0,0-.854,1.957,10.464,10.464,0,0,0-.31,2.649,8.212,8.212,0,0,0,.323,2.37,6.155,6.155,0,0,0,.925,1.894,4.457,4.457,0,0,0,1.423,1.263,3.713,3.713,0,0,0,1.836.456,3.924,3.924,0,0,0,1.4-.242,3.751,3.751,0,0,0,1.108-.641,5.026,5.026,0,0,0,.827-.949,5.3,5.3,0,0,0,.582-1.158l.705.341a5.878,5.878,0,0,1-2.142,2.861A5.739,5.739,0,0,1,189.9,267.967Z" transform="translate(-183.843 -253.886)"/>
      <path id="Path_100" data-name="Path 100" class="cls-1" d="M224.03,273.915l-3.026.209-.142-.133V272.8h-.056c-.15.158-.319.327-.507.508a3.566,3.566,0,0,1-.648.488,4.154,4.154,0,0,1-.817.389,3.662,3.662,0,0,1-1.117.133,2.248,2.248,0,0,1-1.872-.81,3.726,3.726,0,0,1-.643-2.356v-4.474a1.178,1.178,0,0,0-.128-.573,1.119,1.119,0,0,0-.8-.568,4,4,0,0,0-.539-.071v-.626l3.093-.228.141.133v6.5a2.255,2.255,0,0,0,.451,1.528,1.394,1.394,0,0,0,1.081.512,2.481,2.481,0,0,0,.921-.161,2.621,2.621,0,0,0,.677-.38,3.112,3.112,0,0,0,.447-.421,2.43,2.43,0,0,0,.3-.413v-5.3a1.143,1.143,0,0,0-.132-.554,1.23,1.23,0,0,0-.367-.412,1.036,1.036,0,0,0-.5-.137q-.334-.024-.747-.043v-.626l3.375-.228.141.133v7.421a1.073,1.073,0,0,0,.132.55,1.19,1.19,0,0,0,.366.388,1.037,1.037,0,0,0,.4.138,5.069,5.069,0,0,0,.517.042Z" transform="translate(-201.787 -260.327)"/>
      <path id="Path_101" data-name="Path 101" class="cls-1" d="M248.472,269.26a2.4,2.4,0,0,1,.592.787,2.6,2.6,0,0,1,.207,1.091,2.675,2.675,0,0,1-.964,2.125,4.089,4.089,0,0,1-3.987.532,4.142,4.142,0,0,1-.973-.541l-.188.617h-.705l-.094-3.255h.648a3.657,3.657,0,0,0,.321.867,4.153,4.153,0,0,0,.592.895,3.269,3.269,0,0,0,.879.705,2.33,2.33,0,0,0,1.152.285,2.089,2.089,0,0,0,1.391-.415,1.471,1.471,0,0,0,.49-1.188,1.444,1.444,0,0,0-.156-.688,1.522,1.522,0,0,0-.455-.508,3.523,3.523,0,0,0-.763-.394c-.3-.118-.636-.233-1.006-.347a9.363,9.363,0,0,1-.981-.365,3.922,3.922,0,0,1-.927-.546,2.655,2.655,0,0,1-.677-.816,2.348,2.348,0,0,1-.263-1.139,2.569,2.569,0,0,1,.846-1.945,3.169,3.169,0,0,1,2.266-.8,4.6,4.6,0,0,1,1.114.142,3.844,3.844,0,0,1,.926.342l.216-.494h.678l.14,3.008h-.649a3.033,3.033,0,0,0-.85-1.643,2.2,2.2,0,0,0-1.594-.634,1.757,1.757,0,0,0-1.213.392,1.219,1.219,0,0,0-.442.946,1.56,1.56,0,0,0,.146.712,1.308,1.308,0,0,0,.437.484,3.66,3.66,0,0,0,.71.356c.287.11.638.235,1.059.375a8.945,8.945,0,0,1,1.169.465A3.819,3.819,0,0,1,248.472,269.26Z" transform="translate(-218.969 -260.084)"/>
      <path id="Path_102" data-name="Path 102" class="cls-1" d="M268.043,269.531q-.61.256-1.156.432a4.41,4.41,0,0,1-1.335.175,1.991,1.991,0,0,1-1.641-.593,2.616,2.616,0,0,1-.476-1.675v-6.338h-1.673v-.911h1.711v-2.913h1.711v2.913h2.661v.911H265.2v5.228a9.291,9.291,0,0,0,.043.982,1.814,1.814,0,0,0,.2.688.969.969,0,0,0,.451.417,1.912,1.912,0,0,0,.808.143q.235,0,.692-.043a3.05,3.05,0,0,0,.643-.109Z" transform="translate(-230.616 -256.18)"/>
      <path id="Path_103" data-name="Path 103" class="cls-1" d="M288.8,269.085a6.244,6.244,0,0,1-.31,1.941,4.645,4.645,0,0,1-.885,1.618,4.119,4.119,0,0,1-1.506,1.129,4.791,4.791,0,0,1-1.92.37,4.306,4.306,0,0,1-1.684-.337,4.254,4.254,0,0,1-1.421-.982,4.722,4.722,0,0,1-.975-1.551,5.555,5.555,0,0,1-.361-2.054A5.128,5.128,0,0,1,281,265.631a4.6,4.6,0,0,1,6.531-.071A4.887,4.887,0,0,1,288.8,269.085Zm-1.946.019a8.6,8.6,0,0,0-.141-1.5,4.757,4.757,0,0,0-.424-1.343,2.609,2.609,0,0,0-.791-.944,1.985,1.985,0,0,0-1.2-.356,2.092,2.092,0,0,0-1.238.361,2.651,2.651,0,0,0-.834.987,4.422,4.422,0,0,0-.424,1.319,8.733,8.733,0,0,0-.122,1.433,9.147,9.147,0,0,0,.145,1.684,4.9,4.9,0,0,0,.467,1.381,2.694,2.694,0,0,0,.8.954,2.016,2.016,0,0,0,1.2.346,2.094,2.094,0,0,0,1.864-1.148A6.172,6.172,0,0,0,286.849,269.1Z" transform="translate(-241.403 -260.099)"/>
      <path id="Path_104" data-name="Path 104" class="cls-1" d="M321.38,273.872h-4.513v-.626c.144-.014.291-.026.437-.038a1.725,1.725,0,0,0,.39-.076.683.683,0,0,0,.391-.3,1.079,1.079,0,0,0,.126-.555v-4.83a2.318,2.318,0,0,0-.446-1.523,1.393,1.393,0,0,0-1.114-.536,2.582,2.582,0,0,0-.865.142,2.711,2.711,0,0,0-.743.4,2.387,2.387,0,0,0-.456.451,4.146,4.146,0,0,0-.278.4v5.4a1.169,1.169,0,0,0,.113.546.737.737,0,0,0,.386.327,3.009,3.009,0,0,0,.39.128,2.808,2.808,0,0,0,.455.062v.626h-4.419v-.626l.419-.038a1.7,1.7,0,0,0,.372-.076.678.678,0,0,0,.39-.3,1.079,1.079,0,0,0,.127-.555v-4.83a2.312,2.312,0,0,0-.448-1.523,1.4,1.4,0,0,0-1.117-.536,2.5,2.5,0,0,0-.867.147,2.82,2.82,0,0,0-.744.4,2.215,2.215,0,0,0-.462.47c-.126.174-.22.3-.283.394v5.361a1.033,1.033,0,0,0,.132.541.827.827,0,0,0,.395.332,1.987,1.987,0,0,0,.4.142,3.229,3.229,0,0,0,.46.067v.626h-4.5v-.626c.144-.014.293-.026.447-.038a1.745,1.745,0,0,0,.4-.076.676.676,0,0,0,.39-.3,1.062,1.062,0,0,0,.127-.554v-5.81a1.092,1.092,0,0,0-.136-.545,1.244,1.244,0,0,0-.381-.413,1.624,1.624,0,0,0-.441-.184,2.816,2.816,0,0,0-.546-.09v-.626l3.1-.209.131.133v1.338h.066q.235-.237.573-.56a5.072,5.072,0,0,1,.63-.522,2.945,2.945,0,0,1,.823-.379,3.6,3.6,0,0,1,1.066-.152,2.5,2.5,0,0,1,1.551.488,2.776,2.776,0,0,1,.931,1.182q.338-.333.6-.584a4.846,4.846,0,0,1,.68-.536,3.062,3.062,0,0,1,.841-.4,3.561,3.561,0,0,1,1.074-.152,2.351,2.351,0,0,1,1.859.778,3.542,3.542,0,0,1,.685,2.391v4.754a1.164,1.164,0,0,0,.113.546.73.73,0,0,0,.385.327,2.524,2.524,0,0,0,.428.128,3.908,3.908,0,0,0,.474.062Z" transform="translate(-256.792 -260.113)"/>
      <path id="Path_105" data-name="Path 105" class="cls-1" d="M374.215,268.087h-5.538v-.674l.654-.057a1.991,1.991,0,0,0,.587-.114.8.8,0,0,0,.414-.347,1.222,1.222,0,0,0,.132-.6V261.5h-6.271v4.688a1.3,1.3,0,0,0,.108.56.933.933,0,0,0,.428.4,2.361,2.361,0,0,0,.568.171,4.255,4.255,0,0,0,.644.095v.674H360.4v-.674l.654-.057a2,2,0,0,0,.588-.114.8.8,0,0,0,.414-.347,1.223,1.223,0,0,0,.132-.6v-9.717a1.262,1.262,0,0,0-.122-.555.855.855,0,0,0-.423-.394,3.342,3.342,0,0,0-.616-.218,3.462,3.462,0,0,0-.625-.114v-.674h5.537v.674a4,4,0,0,0-.644.085,4.4,4.4,0,0,0-.568.142.673.673,0,0,0-.428.38,1.521,1.521,0,0,0-.108.579v4.175h6.271v-4.08a1.246,1.246,0,0,0-.122-.555.855.855,0,0,0-.423-.394,3.342,3.342,0,0,0-.616-.218,3.462,3.462,0,0,0-.625-.114v-.674h5.538v.674a4,4,0,0,0-.644.085,4.4,4.4,0,0,0-.568.142.674.674,0,0,0-.428.38,1.521,1.521,0,0,0-.108.579v9.707a1.3,1.3,0,0,0,.108.56.935.935,0,0,0,.428.4,2.362,2.362,0,0,0,.568.171,4.269,4.269,0,0,0,.644.095Z" transform="translate(-289.827 -254.328)"/>
      <path id="Path_106" data-name="Path 106" class="cls-1" d="M408.065,269.085a6.244,6.244,0,0,1-.31,1.941,4.644,4.644,0,0,1-.885,1.618,4.122,4.122,0,0,1-1.506,1.129,4.792,4.792,0,0,1-1.92.37,4.306,4.306,0,0,1-1.684-.337,4.255,4.255,0,0,1-1.421-.982,4.709,4.709,0,0,1-.975-1.551,5.555,5.555,0,0,1-.361-2.054,5.13,5.13,0,0,1,1.266-3.587,4.6,4.6,0,0,1,6.531-.071A4.886,4.886,0,0,1,408.065,269.085Zm-1.946.019a8.6,8.6,0,0,0-.141-1.5,4.758,4.758,0,0,0-.425-1.343,2.6,2.6,0,0,0-.79-.944,1.985,1.985,0,0,0-1.2-.356,2.092,2.092,0,0,0-1.238.361,2.653,2.653,0,0,0-.834.987,4.434,4.434,0,0,0-.424,1.319,8.777,8.777,0,0,0-.122,1.433,9.111,9.111,0,0,0,.146,1.684,4.885,4.885,0,0,0,.467,1.381,2.693,2.693,0,0,0,.8.954,2.018,2.018,0,0,0,1.2.346,2.094,2.094,0,0,0,1.864-1.148A6.173,6.173,0,0,0,406.118,269.1Z" transform="translate(-312.996 -260.099)"/>
      <path id="Path_107" data-name="Path 107" class="cls-1" d="M440.646,273.872h-4.513v-.626c.144-.014.29-.026.437-.038a1.73,1.73,0,0,0,.39-.076.683.683,0,0,0,.391-.3,1.079,1.079,0,0,0,.126-.555v-4.83a2.318,2.318,0,0,0-.446-1.523,1.393,1.393,0,0,0-1.114-.536,2.58,2.58,0,0,0-.865.142,2.713,2.713,0,0,0-.743.4,2.385,2.385,0,0,0-.455.451,4.162,4.162,0,0,0-.278.4v5.4a1.165,1.165,0,0,0,.113.546.736.736,0,0,0,.386.327,2.984,2.984,0,0,0,.39.128,2.813,2.813,0,0,0,.456.062v.626H430.5v-.626l.419-.038a1.7,1.7,0,0,0,.372-.076.676.676,0,0,0,.39-.3,1.079,1.079,0,0,0,.127-.555v-4.83a2.314,2.314,0,0,0-.448-1.523,1.4,1.4,0,0,0-1.117-.536,2.507,2.507,0,0,0-.867.147,2.82,2.82,0,0,0-.744.4,2.215,2.215,0,0,0-.462.47c-.125.174-.22.3-.283.394v5.361a1.029,1.029,0,0,0,.132.541.824.824,0,0,0,.395.332,1.987,1.987,0,0,0,.4.142,3.236,3.236,0,0,0,.461.067v.626h-4.5v-.626c.144-.014.293-.026.447-.038a1.742,1.742,0,0,0,.4-.076.678.678,0,0,0,.39-.3,1.066,1.066,0,0,0,.127-.554v-5.81a1.088,1.088,0,0,0-.137-.545,1.244,1.244,0,0,0-.381-.413,1.624,1.624,0,0,0-.441-.184,2.816,2.816,0,0,0-.546-.09v-.626l3.1-.209.131.133v1.338h.066q.235-.237.573-.56a5.1,5.1,0,0,1,.63-.522,2.956,2.956,0,0,1,.823-.379,3.6,3.6,0,0,1,1.067-.152,2.5,2.5,0,0,1,1.551.488,2.777,2.777,0,0,1,.931,1.182q.338-.333.6-.584a4.869,4.869,0,0,1,.68-.536,3.062,3.062,0,0,1,.841-.4,3.561,3.561,0,0,1,1.074-.152,2.352,2.352,0,0,1,1.859.778,3.542,3.542,0,0,1,.685,2.391v4.754a1.169,1.169,0,0,0,.113.546.731.731,0,0,0,.385.327,2.533,2.533,0,0,0,.428.128,3.908,3.908,0,0,0,.474.062Z" transform="translate(-328.383 -260.113)"/>
      <path id="Path_108" data-name="Path 108" class="cls-1" d="M475.679,271.656a4.791,4.791,0,0,1-1.561,1.784,3.909,3.909,0,0,1-2.247.664,4.538,4.538,0,0,1-1.96-.4,3.852,3.852,0,0,1-1.386-1.082,4.6,4.6,0,0,1-.813-1.594,6.791,6.791,0,0,1-.269-1.926,5.713,5.713,0,0,1,.287-1.789,5.056,5.056,0,0,1,.841-1.58,4.079,4.079,0,0,1,1.33-1.086,3.8,3.8,0,0,1,1.782-.413,4.252,4.252,0,0,1,1.74.323,3.091,3.091,0,0,1,1.174.883,3.514,3.514,0,0,1,.644,1.252,5.519,5.519,0,0,1,.211,1.566v.626h-6.139a7.461,7.461,0,0,0,.173,1.674,4.06,4.06,0,0,0,.55,1.322,2.635,2.635,0,0,0,.959.87,2.938,2.938,0,0,0,1.41.319,2.581,2.581,0,0,0,1.443-.4,3.907,3.907,0,0,0,1.17-1.426Zm-2.078-3.568a7.8,7.8,0,0,0-.089-1.135,3.5,3.5,0,0,0-.287-1.013,1.924,1.924,0,0,0-.592-.71,1.606,1.606,0,0,0-.969-.274,2.01,2.01,0,0,0-1.641.827,3.884,3.884,0,0,0-.71,2.3Z" transform="translate(-354.079 -260.099)"/>
      <path id="Path_109" data-name="Path 109" class="cls-1" d="M496.863,269.26a2.4,2.4,0,0,1,.592.787,2.587,2.587,0,0,1,.207,1.091,2.671,2.671,0,0,1-.964,2.125,4.087,4.087,0,0,1-3.987.532,4.117,4.117,0,0,1-.973-.541l-.189.617h-.705l-.094-3.255h.649a3.666,3.666,0,0,0,.32.867,4.183,4.183,0,0,0,.592.895,3.276,3.276,0,0,0,.879.705,2.332,2.332,0,0,0,1.152.285,2.09,2.09,0,0,0,1.392-.415,1.472,1.472,0,0,0,.489-1.188,1.439,1.439,0,0,0-.155-.688,1.5,1.5,0,0,0-.456-.508,3.531,3.531,0,0,0-.762-.394c-.3-.118-.636-.233-1.006-.347a9.374,9.374,0,0,1-.982-.365,3.9,3.9,0,0,1-.926-.546,2.669,2.669,0,0,1-.678-.816,2.348,2.348,0,0,1-.263-1.139,2.569,2.569,0,0,1,.846-1.945,3.168,3.168,0,0,1,2.265-.8,4.6,4.6,0,0,1,1.115.142,3.85,3.85,0,0,1,.926.342l.215-.494h.678l.14,3.008h-.648a3.034,3.034,0,0,0-.851-1.643,2.2,2.2,0,0,0-1.593-.634,1.758,1.758,0,0,0-1.213.392,1.217,1.217,0,0,0-.442.946,1.56,1.56,0,0,0,.145.712,1.311,1.311,0,0,0,.438.484,3.655,3.655,0,0,0,.71.356q.429.166,1.058.375a8.934,8.934,0,0,1,1.17.465A3.821,3.821,0,0,1,496.863,269.26Z" transform="translate(-368.07 -260.084)"/>
    </g>
    <g id="Group_4302" data-name="Group 4302" transform="translate(86.149 88.406)">
      <path id="Path_110" data-name="Path 110" class="cls-1" d="M179.121,191.579H164.2v-1.517a18.588,18.588,0,0,0,2.447-.38q1.405-.3,1.406-.749a2.369,2.369,0,0,0-.029-.35,2.477,2.477,0,0,0-.164-.526l-2.338-5.719h-9.455q-.327.8-.72,1.868t-.682,1.906a10.171,10.171,0,0,0-.432,1.576,5.785,5.785,0,0,0-.068.68q0,.623.935,1.061a10.159,10.159,0,0,0,3.115.632v1.517H146.983v-1.517a10.294,10.294,0,0,0,1.438-.2,3.844,3.844,0,0,0,1.264-.457,4.907,4.907,0,0,0,1.342-1.148,6.1,6.1,0,0,0,.917-1.614q2.239-5.465,4.488-10.952t4.97-12.1h3.861q3.783,9.377,5.926,14.822t3.648,9.026a4.494,4.494,0,0,0,.636,1.061,4.147,4.147,0,0,0,1.1.9,4.342,4.342,0,0,0,1.255.467,8.982,8.982,0,0,0,1.294.195Zm-14.393-11.165-3.964-9.978-3.906,9.978Z" transform="translate(-146.983 -163.587)"/>
      <path id="Path_111" data-name="Path 111" class="cls-1" d="M242.911,192.164H227.72v-1.517l1.534-.117a5.412,5.412,0,0,0,1.4-.233,1.85,1.85,0,0,0,.975-.769,2.521,2.521,0,0,0,.26-1.216V168.743a2.592,2.592,0,0,0-.251-1.167,1.831,1.831,0,0,0-.985-.817,8.557,8.557,0,0,0-1.37-.4,15.772,15.772,0,0,0-1.564-.283v-1.517h15.191v1.517q-.579.059-1.448.166a8,8,0,0,0-1.467.3,1.588,1.588,0,0,0-1,.789,2.833,2.833,0,0,0-.251,1.216V188.1a2.541,2.541,0,0,0,.26,1.2,1.9,1.9,0,0,0,.995.807,6.6,6.6,0,0,0,1.341.341,14.332,14.332,0,0,0,1.573.2Z" transform="translate(-195.447 -164.172)"/>
      <path id="Path_112" data-name="Path 112" class="cls-1" d="M302.4,166.078q-.541.059-1.544.215a4.032,4.032,0,0,0-1.814.758,2.982,2.982,0,0,0-1.013,1.8,17.478,17.478,0,0,0-.3,3.744V192.32h-3.435l-17.063-21.34v12.955a15.886,15.886,0,0,0,.319,3.667,3.356,3.356,0,0,0,1.033,1.838,4.757,4.757,0,0,0,1.66.758,17.6,17.6,0,0,0,1.815.448v1.517H270.283v-1.517a12.029,12.029,0,0,0,1.728-.282,4.525,4.525,0,0,0,1.63-.691,2.9,2.9,0,0,0,1.033-1.7,18.093,18.093,0,0,0,.28-3.822V171.078a5.566,5.566,0,0,0-.3-1.838,3.783,3.783,0,0,0-.935-1.489,5.089,5.089,0,0,0-1.555-1.04,9.565,9.565,0,0,0-2-.594v-1.556h10.31l14.975,18.666V172.787a15.346,15.346,0,0,0-.328-3.7,3.386,3.386,0,0,0-1.042-1.8,4.884,4.884,0,0,0-1.66-.767,17.085,17.085,0,0,0-1.776-.439v-1.517H302.4Z" transform="translate(-220.926 -164.172)"/>
      <path id="Path_113" data-name="Path 113" class="cls-1" d="M370.007,192.164H354.816v-1.517l1.534-.117a5.419,5.419,0,0,0,1.4-.233,1.85,1.85,0,0,0,.975-.769,2.521,2.521,0,0,0,.26-1.216V168.743a2.592,2.592,0,0,0-.251-1.167,1.829,1.829,0,0,0-.984-.817,8.578,8.578,0,0,0-1.371-.4,15.742,15.742,0,0,0-1.563-.283v-1.517h15.191v1.517q-.579.059-1.448.166a8,8,0,0,0-1.467.3,1.588,1.588,0,0,0-1,.789,2.833,2.833,0,0,0-.25,1.216V188.1a2.546,2.546,0,0,0,.26,1.2,1.9,1.9,0,0,0,.995.807,6.6,6.6,0,0,0,1.341.341,14.344,14.344,0,0,0,1.573.2Z" transform="translate(-271.738 -164.172)"/>
      <path id="Path_114" data-name="Path 114" class="cls-1" d="M423.474,171.6h-1.467a10.343,10.343,0,0,0-1.93-3.178,5.216,5.216,0,0,0-2.723-1.9,8.474,8.474,0,0,0-1.611-.164q-1.034-.03-1.708-.03h-3.977v10.64h2.818a6.874,6.874,0,0,0,1.93-.252,3.656,3.656,0,0,0,1.583-.973,4.9,4.9,0,0,0,.9-1.576,9.44,9.44,0,0,0,.589-1.964h1.467v11.516h-1.467a9.966,9.966,0,0,0-.589-2.053,5.692,5.692,0,0,0-.9-1.7,3.293,3.293,0,0,0-1.505-.962,6.941,6.941,0,0,0-2.008-.263h-2.818V186.7a8.432,8.432,0,0,0,.183,1.975,1.966,1.966,0,0,0,.686,1.118,2.764,2.764,0,0,0,1.322.486,17.539,17.539,0,0,0,2.288.117q.675,0,1.621-.019a14.763,14.763,0,0,0,1.66-.117,10.244,10.244,0,0,0,1.515-.292,2.219,2.219,0,0,0,1.051-.564,15.955,15.955,0,0,0,2.085-2.908,21.176,21.176,0,0,0,1.525-2.927H425.4l-.521,8.6H399.192v-1.517q.539-.039,1.467-.156a5.874,5.874,0,0,0,1.312-.272,1.88,1.88,0,0,0,.984-.787,2.6,2.6,0,0,0,.251-1.217V168.743a2.752,2.752,0,0,0-.213-1.158,1.96,1.96,0,0,0-1.023-.826,6.909,6.909,0,0,0-1.409-.428q-.908-.195-1.37-.253v-1.517h24.282Z" transform="translate(-298.376 -164.172)"/>
      <path id="Path_115" data-name="Path 115" class="cls-1" d="M501.955,192.164H491.444q-2.72-4.2-4.523-6.692t-4.483-5.758h-1.059V188.1a2.486,2.486,0,0,0,.261,1.187,2,2,0,0,0,.993.817,6.777,6.777,0,0,0,1.149.321,13.337,13.337,0,0,0,1.342.224v1.517H470.512v-1.517q.559-.059,1.477-.165a5.608,5.608,0,0,0,1.3-.263,1.879,1.879,0,0,0,.984-.787,2.609,2.609,0,0,0,.251-1.217V168.743a2.818,2.818,0,0,0-.213-1.167,1.864,1.864,0,0,0-1.023-.817,8.352,8.352,0,0,0-1.457-.428q-.84-.175-1.322-.253v-1.517h15.365q5.154,0,7.827,1.625a5.366,5.366,0,0,1,2.673,4.911,6.539,6.539,0,0,1-1.65,4.659,11.016,11.016,0,0,1-5.028,2.753q1.313,1.712,3.059,3.968t3.638,4.61q.6.758,1.631,1.858a4.773,4.773,0,0,0,1.825,1.352,7.526,7.526,0,0,0,1.129.233q.684.1.975.117ZM488.81,171.641a4.953,4.953,0,0,0-1.534-4.036,6.672,6.672,0,0,0-4.372-1.274h-1.525v11.555h1.467a6.1,6.1,0,0,0,4.4-1.5Q488.811,174.89,488.81,171.641Z" transform="translate(-341.187 -164.172)"/>
    </g>
    <g id="Group_4303" data-name="Group 4303" transform="translate(45.875 85.533)">
      <path id="Path_116" data-name="Path 116" class="cls-1" d="M93.375,197.467H77.616q-4.078-6.251-6.781-9.956t-6.723-8.566H62.524v12.473a3.668,3.668,0,0,0,.391,1.766,2.994,2.994,0,0,0,1.49,1.216,10.2,10.2,0,0,0,1.722.477,20.161,20.161,0,0,0,2.012.333v2.257H46.23V195.21q.839-.087,2.215-.246a8.444,8.444,0,0,0,1.953-.391,2.81,2.81,0,0,0,1.476-1.172,3.848,3.848,0,0,0,.377-1.81V162.623a4.166,4.166,0,0,0-.319-1.736,2.789,2.789,0,0,0-1.534-1.216,12.7,12.7,0,0,0-2.185-.637q-1.259-.26-1.983-.377V156.4H69.267q7.728,0,11.735,2.417a7.969,7.969,0,0,1,4.008,7.307,9.681,9.681,0,0,1-2.474,6.932,16.554,16.554,0,0,1-7.539,4.1q1.967,2.547,4.587,5.9t5.455,6.858q.9,1.129,2.445,2.764a7.142,7.142,0,0,0,2.735,2.012,11.59,11.59,0,0,0,1.694.347q1.027.145,1.461.173ZM73.666,166.934q0-4.109-2.3-6a10.055,10.055,0,0,0-6.555-1.9H62.524v17.191h2.2a9.2,9.2,0,0,0,6.6-2.229Q73.666,171.768,73.666,166.934Z" transform="translate(-46.23 -156.4)"/>
    </g>
    <rect id="Rectangle_670" data-name="Rectangle 670" class="cls-1" width="52.707" height="1.869" transform="translate(45.638 132.431)"/>
    <rect id="Rectangle_671" data-name="Rectangle 671" class="cls-1" width="57.161" height="1.494" transform="translate(45.638 78.536)"/>
    <rect id="Rectangle_672" data-name="Rectangle 672" class="cls-1" width="12.341" height="1.869" transform="translate(234.477 132.431)"/>
    <rect id="Rectangle_673" data-name="Rectangle 673" class="cls-1" width="22.132" height="1.494" transform="translate(224.971 78.536)"/>
    <path id="Path_118" data-name="Path 118" class="cls-1" d="M110.217,78.536H192.2l-6.177-17-1.177-9.706a8.311,8.311,0,0,1-6.569-3.726c-2.647-3.824-4.51-6.079-7.745-6.569s-5-.882-7.255,0a50.913,50.913,0,0,1-8.53,2.745c-2.451.392-4.9,3.53-15.1,9.9C128.467,62.514,110.217,78.536,110.217,78.536Z"/>
    <path id="Path_117" data-name="Path 117" class="cls-2" d="M309.7,75.558a10.18,10.18,0,0,1-3.01-2.376c-1.742-1.806-3.865-2.82-4.341-3.833a7.348,7.348,0,0,0-2.566-2.725c-1.489-1.172-1.489-1.9-3.042-3.2a21.564,21.564,0,0,1-3.992-3.548c-1.711-2.028-3.422-1.774-5.893-4.563s-3.454-3.58-5.767-4.087-3.858-.959-5.759-1.2-2.662-.808-2.994-2.162-.38-1.164-2.091-2.733a20.211,20.211,0,0,1-3.089-3.755c-.618-.831-.856-.428-2.638-.9s-2.543-.642-3.089-1.5-1.284-.618-2.9-.57-2.376-.166-3.636,1.236-1.212,1.806-3.374,1.593-4.515-.4-5.347.19-2.163,2.472-3.375,3.4a5.894,5.894,0,0,1-3.3,1.711c-1.806.333-1.212,1.26-2.59,2.187s-4.959,4.531-6.986,5.576a15.817,15.817,0,0,0-3.517,2.345c-1.679,1.267-1.9,1.457-4.721,3.675s-7.3,6.131-10.82,9.078c-1.711,1.378-3.541,2.5-5.085,3.779a45.219,45.219,0,0,1-4.182,3.4c-2.376,1.687-2.154,1.641-2.154,3.458h113.81V78.536A33.05,33.05,0,0,0,309.7,75.558Zm-47.669.9c-1.458,0-1.854-.665-2.725-1.584a3.078,3.078,0,0,0-2.661-.745c-.808,0-.491.016-2.5.1s-4.262,1.521-4.927,1.537-1.806-1.061-4.372-2.994-4.166-3.2-4.515-2.788,1.109,1.252,1.441,2.551,1.3,2.725.919,3.042-.951-.222-2.091-1.141a29.278,29.278,0,0,0-4.435-3.042,12.7,12.7,0,0,1-3.6-2.978c-.887-.808-.721.507-.721,1.529a2.047,2.047,0,0,1-.452,1.616,22.032,22.032,0,0,1-2.067,1.854c-.642.57-.665.642-2.757.808s-11.668,1.046-18.392,1.806a41,41,0,0,1,5.941-4.9c2.994-2.186,2.186-2.709,4.776-4.325s2.091-2,4.182-3.469A19.608,19.608,0,0,0,226.5,60.46a5.023,5.023,0,0,1,3.161-1.426c1-.119,2.162,1.307,3.849,2.115s.737-1.022-.4-1.663-.951-3.137-.761-3.47,1.473-.808,3.066-2.115,1.782-.5,1.877.333.737.665,2.662.713,1.378-.475,1.117-1.4-.713-2.472-.713-2.472,1.687-.523,3.564-1.236c3.779-1.592,2.97-3.208,4.729-3.707s1.806-1,2.661-1.426,2.923-.1,4.087-.166,1.9-2.781,2.637-2.709,3.4,4.3,4.23,4.4,1.355-1.331,2.5-2.234c.546,1.331,1.426,1.283,2.567,2.851s.736,2.115,2.543,3.66,4.254,2,4.4,2.424c-1.331,1-5.109,3.018-5.109,3.018s.452,1.354.855,2.448.428,2.78.832,4.539c-1.093-.594-3.3-3.993-4.016-4.753-1.545-1.307-1.521-1.735-2.685-3.232-.428-.119-1.473.642-3.161,1.4a21.834,21.834,0,0,0-2.234-2.448l-1.5.57c.428.4,2.733,4.158,4.135,6.3s2.9,4.111,4.3,6.511,3.731,3.161,6.226,4.4,4.17,2.994,5.561,3.529,1.426,1.256,1.426,1.256Z" transform="translate(-92.32)"/>
  </g>
</svg>
